<mxfile host="app.diagrams.net" modified="2021-07-15T11:41:32.990Z" agent="5.0 (Windows NT 10.0; Win64; x64) AppleWebKit/537.36 (KHTML, like Gecko) Chrome/91.0.4472.114 Safari/537.36" etag="TPMfcPmdsZE0pNlLJS3f" version="14.8.6" type="github">
  <diagram id="pdDH_vBhMzbRQby9audl" name="Page-1">
    <mxGraphModel dx="2249" dy="882" grid="1" gridSize="10" guides="1" tooltips="1" connect="1" arrows="1" fold="1" page="1" pageScale="1" pageWidth="827" pageHeight="1169" math="0" shadow="0">
      <root>
        <mxCell id="0" />
        <mxCell id="1" parent="0" />
        <mxCell id="GosO7Gj60h1sTJ2ZnbMC-37" value="" style="rounded=0;whiteSpace=wrap;html=1;strokeColor=#666666;strokeWidth=1;fontColor=#333333;fillColor=none;dashed=1;" vertex="1" parent="1">
          <mxGeometry x="260" y="40" width="500" height="620" as="geometry" />
        </mxCell>
        <mxCell id="GosO7Gj60h1sTJ2ZnbMC-36" style="edgeStyle=orthogonalEdgeStyle;rounded=0;orthogonalLoop=1;jettySize=auto;html=1;entryX=0.5;entryY=0;entryDx=0;entryDy=0;" edge="1" parent="1" source="GosO7Gj60h1sTJ2ZnbMC-5" target="GosO7Gj60h1sTJ2ZnbMC-21">
          <mxGeometry relative="1" as="geometry" />
        </mxCell>
        <mxCell id="GosO7Gj60h1sTJ2ZnbMC-5" value="Location Selection" style="rounded=1;whiteSpace=wrap;html=1;strokeColor=#6c8ebf;strokeWidth=1;fillColor=#dae8fc;" vertex="1" parent="1">
          <mxGeometry x="580" y="360" width="120" height="60" as="geometry" />
        </mxCell>
        <mxCell id="GosO7Gj60h1sTJ2ZnbMC-19" style="edgeStyle=orthogonalEdgeStyle;rounded=0;orthogonalLoop=1;jettySize=auto;html=1;strokeColor=#B3B3B3;" edge="1" parent="1" source="GosO7Gj60h1sTJ2ZnbMC-9" target="GosO7Gj60h1sTJ2ZnbMC-18">
          <mxGeometry relative="1" as="geometry" />
        </mxCell>
        <mxCell id="GosO7Gj60h1sTJ2ZnbMC-9" value="Item Selection" style="rounded=1;whiteSpace=wrap;html=1;strokeColor=#6c8ebf;strokeWidth=1;fillColor=#dae8fc;opacity=40;" vertex="1" parent="1">
          <mxGeometry x="-80" y="240" width="120" height="60" as="geometry" />
        </mxCell>
        <mxCell id="GosO7Gj60h1sTJ2ZnbMC-14" style="edgeStyle=orthogonalEdgeStyle;rounded=0;orthogonalLoop=1;jettySize=auto;html=1;" edge="1" parent="1" source="GosO7Gj60h1sTJ2ZnbMC-12" target="GosO7Gj60h1sTJ2ZnbMC-5">
          <mxGeometry relative="1" as="geometry" />
        </mxCell>
        <mxCell id="GosO7Gj60h1sTJ2ZnbMC-12" value="Item Selection" style="rounded=1;whiteSpace=wrap;html=1;strokeColor=#6c8ebf;strokeWidth=1;fillColor=#dae8fc;" vertex="1" parent="1">
          <mxGeometry x="580" y="240" width="120" height="60" as="geometry" />
        </mxCell>
        <mxCell id="GosO7Gj60h1sTJ2ZnbMC-16" style="edgeStyle=orthogonalEdgeStyle;rounded=0;orthogonalLoop=1;jettySize=auto;html=1;exitX=0;exitY=0.5;exitDx=0;exitDy=0;strokeColor=#B3B3B3;" edge="1" parent="1" source="GosO7Gj60h1sTJ2ZnbMC-15" target="GosO7Gj60h1sTJ2ZnbMC-9">
          <mxGeometry relative="1" as="geometry">
            <mxPoint x="200" y="110" as="sourcePoint" />
            <mxPoint x="-20" y="240" as="targetPoint" />
          </mxGeometry>
        </mxCell>
        <mxCell id="GosO7Gj60h1sTJ2ZnbMC-25" value="Create Non-QD(Original) Contract" style="edgeLabel;html=1;align=center;verticalAlign=middle;resizable=0;points=[];fontColor=#B3B3B3;" vertex="1" connectable="0" parent="GosO7Gj60h1sTJ2ZnbMC-16">
          <mxGeometry x="-0.1829" y="-2" relative="1" as="geometry">
            <mxPoint x="23" y="-8" as="offset" />
          </mxGeometry>
        </mxCell>
        <mxCell id="GosO7Gj60h1sTJ2ZnbMC-17" style="edgeStyle=orthogonalEdgeStyle;rounded=0;orthogonalLoop=1;jettySize=auto;html=1;entryX=0.5;entryY=0;entryDx=0;entryDy=0;" edge="1" parent="1" source="GosO7Gj60h1sTJ2ZnbMC-15" target="GosO7Gj60h1sTJ2ZnbMC-12">
          <mxGeometry relative="1" as="geometry">
            <mxPoint x="720" y="240" as="targetPoint" />
          </mxGeometry>
        </mxCell>
        <mxCell id="GosO7Gj60h1sTJ2ZnbMC-26" value="Create QD Contract" style="edgeLabel;html=1;align=center;verticalAlign=middle;resizable=0;points=[];" vertex="1" connectable="0" parent="GosO7Gj60h1sTJ2ZnbMC-17">
          <mxGeometry x="-0.24" y="-1" relative="1" as="geometry">
            <mxPoint x="17" y="-11" as="offset" />
          </mxGeometry>
        </mxCell>
        <mxCell id="GosO7Gj60h1sTJ2ZnbMC-15" value="Proposal" style="rounded=1;whiteSpace=wrap;html=1;strokeColor=#b85450;strokeWidth=1;fillColor=#f8cecc;" vertex="1" parent="1">
          <mxGeometry x="300" y="80" width="120" height="60" as="geometry" />
        </mxCell>
        <mxCell id="GosO7Gj60h1sTJ2ZnbMC-22" style="edgeStyle=orthogonalEdgeStyle;rounded=0;orthogonalLoop=1;jettySize=auto;html=1;entryX=0.5;entryY=0;entryDx=0;entryDy=0;strokeColor=#B3B3B3;" edge="1" parent="1" source="GosO7Gj60h1sTJ2ZnbMC-18" target="GosO7Gj60h1sTJ2ZnbMC-20">
          <mxGeometry relative="1" as="geometry" />
        </mxCell>
        <mxCell id="GosO7Gj60h1sTJ2ZnbMC-18" value="Location Selection" style="rounded=1;whiteSpace=wrap;html=1;strokeColor=#6c8ebf;strokeWidth=1;fillColor=#dae8fc;opacity=40;" vertex="1" parent="1">
          <mxGeometry x="-80" y="360" width="120" height="60" as="geometry" />
        </mxCell>
        <mxCell id="GosO7Gj60h1sTJ2ZnbMC-40" style="edgeStyle=orthogonalEdgeStyle;rounded=0;orthogonalLoop=1;jettySize=auto;html=1;entryX=0;entryY=0.5;entryDx=0;entryDy=0;fontColor=#B3B3B3;exitX=0.5;exitY=1;exitDx=0;exitDy=0;strokeColor=#B3B3B3;" edge="1" parent="1" source="GosO7Gj60h1sTJ2ZnbMC-20" target="GosO7Gj60h1sTJ2ZnbMC-38">
          <mxGeometry relative="1" as="geometry" />
        </mxCell>
        <mxCell id="GosO7Gj60h1sTJ2ZnbMC-52" value="Add to Proposal" style="edgeLabel;html=1;align=center;verticalAlign=middle;resizable=0;points=[];fontColor=#B3B3B3;" vertex="1" connectable="0" parent="GosO7Gj60h1sTJ2ZnbMC-40">
          <mxGeometry x="-0.0409" y="2" relative="1" as="geometry">
            <mxPoint x="49" y="-8" as="offset" />
          </mxGeometry>
        </mxCell>
        <mxCell id="GosO7Gj60h1sTJ2ZnbMC-20" value="" style="ellipse;whiteSpace=wrap;html=1;aspect=fixed;strokeColor=#666666;strokeWidth=1;fillColor=#f5f5f5;fontColor=#333333;opacity=60;" vertex="1" parent="1">
          <mxGeometry x="-35" y="560" width="30" height="30" as="geometry" />
        </mxCell>
        <mxCell id="GosO7Gj60h1sTJ2ZnbMC-39" style="edgeStyle=orthogonalEdgeStyle;rounded=0;orthogonalLoop=1;jettySize=auto;html=1;entryX=1;entryY=0.5;entryDx=0;entryDy=0;fontColor=#B3B3B3;exitX=0.5;exitY=1;exitDx=0;exitDy=0;" edge="1" parent="1" source="GosO7Gj60h1sTJ2ZnbMC-21" target="GosO7Gj60h1sTJ2ZnbMC-38">
          <mxGeometry relative="1" as="geometry" />
        </mxCell>
        <mxCell id="GosO7Gj60h1sTJ2ZnbMC-51" value="Add to Proposal" style="edgeLabel;html=1;align=center;verticalAlign=middle;resizable=0;points=[];" vertex="1" connectable="0" parent="GosO7Gj60h1sTJ2ZnbMC-39">
          <mxGeometry x="0.2176" y="-1" relative="1" as="geometry">
            <mxPoint x="7" y="-9" as="offset" />
          </mxGeometry>
        </mxCell>
        <mxCell id="GosO7Gj60h1sTJ2ZnbMC-21" value="" style="ellipse;whiteSpace=wrap;html=1;aspect=fixed;strokeColor=#666666;strokeWidth=1;fillColor=#f5f5f5;fontColor=#333333;" vertex="1" parent="1">
          <mxGeometry x="625" y="560" width="30" height="30" as="geometry" />
        </mxCell>
        <mxCell id="GosO7Gj60h1sTJ2ZnbMC-27" style="edgeStyle=orthogonalEdgeStyle;rounded=0;orthogonalLoop=1;jettySize=auto;html=1;entryX=0.5;entryY=1;entryDx=0;entryDy=0;" edge="1" parent="1" source="GosO7Gj60h1sTJ2ZnbMC-23" target="GosO7Gj60h1sTJ2ZnbMC-15">
          <mxGeometry relative="1" as="geometry" />
        </mxCell>
        <mxCell id="GosO7Gj60h1sTJ2ZnbMC-30" style="edgeStyle=orthogonalEdgeStyle;rounded=0;orthogonalLoop=1;jettySize=auto;html=1;entryX=0.5;entryY=0;entryDx=0;entryDy=0;exitX=0.25;exitY=1;exitDx=0;exitDy=0;strokeColor=#B3B3B3;" edge="1" parent="1" source="GosO7Gj60h1sTJ2ZnbMC-23" target="GosO7Gj60h1sTJ2ZnbMC-29">
          <mxGeometry relative="1" as="geometry">
            <mxPoint x="220" y="230" as="sourcePoint" />
          </mxGeometry>
        </mxCell>
        <mxCell id="GosO7Gj60h1sTJ2ZnbMC-33" style="edgeStyle=orthogonalEdgeStyle;rounded=0;orthogonalLoop=1;jettySize=auto;html=1;exitX=0.75;exitY=1;exitDx=0;exitDy=0;entryX=0.5;entryY=0;entryDx=0;entryDy=0;" edge="1" parent="1" source="GosO7Gj60h1sTJ2ZnbMC-23" target="GosO7Gj60h1sTJ2ZnbMC-28">
          <mxGeometry relative="1" as="geometry" />
        </mxCell>
        <mxCell id="GosO7Gj60h1sTJ2ZnbMC-23" value="Proposal Data Handler Service" style="rounded=1;whiteSpace=wrap;html=1;strokeColor=#d6b656;strokeWidth=1;fillColor=#fff2cc;" vertex="1" parent="1">
          <mxGeometry x="300" y="200" width="120" height="60" as="geometry" />
        </mxCell>
        <mxCell id="GosO7Gj60h1sTJ2ZnbMC-34" style="edgeStyle=orthogonalEdgeStyle;rounded=0;orthogonalLoop=1;jettySize=auto;html=1;exitX=1;exitY=0.25;exitDx=0;exitDy=0;entryX=0;entryY=0.5;entryDx=0;entryDy=0;" edge="1" parent="1" source="GosO7Gj60h1sTJ2ZnbMC-28" target="GosO7Gj60h1sTJ2ZnbMC-12">
          <mxGeometry relative="1" as="geometry" />
        </mxCell>
        <mxCell id="GosO7Gj60h1sTJ2ZnbMC-35" style="edgeStyle=orthogonalEdgeStyle;rounded=0;orthogonalLoop=1;jettySize=auto;html=1;exitX=1;exitY=0.75;exitDx=0;exitDy=0;entryX=0;entryY=0.5;entryDx=0;entryDy=0;" edge="1" parent="1" source="GosO7Gj60h1sTJ2ZnbMC-28" target="GosO7Gj60h1sTJ2ZnbMC-5">
          <mxGeometry relative="1" as="geometry" />
        </mxCell>
        <mxCell id="GosO7Gj60h1sTJ2ZnbMC-28" value="QD Contract Data Handler Service" style="rounded=1;whiteSpace=wrap;html=1;strokeColor=#d6b656;strokeWidth=1;fillColor=#fff2cc;" vertex="1" parent="1">
          <mxGeometry x="420" y="300" width="120" height="60" as="geometry" />
        </mxCell>
        <mxCell id="GosO7Gj60h1sTJ2ZnbMC-31" style="edgeStyle=orthogonalEdgeStyle;rounded=0;orthogonalLoop=1;jettySize=auto;html=1;entryX=1;entryY=0.5;entryDx=0;entryDy=0;exitX=0;exitY=0.25;exitDx=0;exitDy=0;strokeColor=#B3B3B3;" edge="1" parent="1" source="GosO7Gj60h1sTJ2ZnbMC-29" target="GosO7Gj60h1sTJ2ZnbMC-9">
          <mxGeometry relative="1" as="geometry" />
        </mxCell>
        <mxCell id="GosO7Gj60h1sTJ2ZnbMC-32" style="edgeStyle=orthogonalEdgeStyle;rounded=0;orthogonalLoop=1;jettySize=auto;html=1;exitX=0;exitY=0.75;exitDx=0;exitDy=0;entryX=1;entryY=0.5;entryDx=0;entryDy=0;strokeColor=#B3B3B3;" edge="1" parent="1" source="GosO7Gj60h1sTJ2ZnbMC-29" target="GosO7Gj60h1sTJ2ZnbMC-18">
          <mxGeometry relative="1" as="geometry" />
        </mxCell>
        <mxCell id="GosO7Gj60h1sTJ2ZnbMC-29" value="Proposal Contract Data Handler Service" style="rounded=1;whiteSpace=wrap;html=1;strokeColor=#d6b656;strokeWidth=1;fillColor=#fff2cc;shadow=0;sketch=0;glass=0;opacity=40;" vertex="1" parent="1">
          <mxGeometry x="100" y="300" width="120" height="60" as="geometry" />
        </mxCell>
        <mxCell id="GosO7Gj60h1sTJ2ZnbMC-38" value="Proposal" style="rounded=1;whiteSpace=wrap;html=1;strokeColor=#b85450;strokeWidth=1;fillColor=#f8cecc;" vertex="1" parent="1">
          <mxGeometry x="300" y="680" width="120" height="60" as="geometry" />
        </mxCell>
        <mxCell id="GosO7Gj60h1sTJ2ZnbMC-42" style="edgeStyle=orthogonalEdgeStyle;rounded=0;orthogonalLoop=1;jettySize=auto;html=1;entryX=0.5;entryY=1;entryDx=0;entryDy=0;fontColor=#B3B3B3;strokeColor=#B3B3B3;" edge="1" parent="1" source="GosO7Gj60h1sTJ2ZnbMC-41" target="GosO7Gj60h1sTJ2ZnbMC-29">
          <mxGeometry relative="1" as="geometry" />
        </mxCell>
        <mxCell id="GosO7Gj60h1sTJ2ZnbMC-41" value="Proposal Util Service" style="rounded=1;whiteSpace=wrap;html=1;strokeColor=#d79b00;strokeWidth=1;fillColor=#ffe6cc;opacity=40;" vertex="1" parent="1">
          <mxGeometry x="100" y="420" width="120" height="60" as="geometry" />
        </mxCell>
        <mxCell id="GosO7Gj60h1sTJ2ZnbMC-44" style="edgeStyle=orthogonalEdgeStyle;rounded=0;orthogonalLoop=1;jettySize=auto;html=1;entryX=0.5;entryY=1;entryDx=0;entryDy=0;fontColor=#B3B3B3;exitX=0.5;exitY=0;exitDx=0;exitDy=0;" edge="1" parent="1" source="GosO7Gj60h1sTJ2ZnbMC-47" target="GosO7Gj60h1sTJ2ZnbMC-28">
          <mxGeometry relative="1" as="geometry">
            <mxPoint x="480" y="440" as="sourcePoint" />
          </mxGeometry>
        </mxCell>
        <mxCell id="GosO7Gj60h1sTJ2ZnbMC-45" value="&lt;font color=&quot;#000000&quot; size=&quot;1&quot;&gt;&lt;b style=&quot;font-size: 14px&quot;&gt;QD Contract&lt;/b&gt;&lt;/font&gt;" style="text;html=1;strokeColor=none;fillColor=none;align=center;verticalAlign=middle;whiteSpace=wrap;rounded=0;fontColor=#B3B3B3;" vertex="1" parent="1">
          <mxGeometry x="260" y="40" width="100" height="30" as="geometry" />
        </mxCell>
        <mxCell id="GosO7Gj60h1sTJ2ZnbMC-47" value="Product Resource Utility Service" style="rounded=1;whiteSpace=wrap;html=1;strokeColor=#d79b00;strokeWidth=1;fillColor=#ffe6cc;" vertex="1" parent="1">
          <mxGeometry x="420" y="440" width="120" height="60" as="geometry" />
        </mxCell>
        <mxCell id="GosO7Gj60h1sTJ2ZnbMC-49" style="edgeStyle=orthogonalEdgeStyle;rounded=0;orthogonalLoop=1;jettySize=auto;html=1;entryX=0;entryY=0.5;entryDx=0;entryDy=0;fontColor=#B3B3B3;strokeColor=#000000;exitX=0.5;exitY=0;exitDx=0;exitDy=0;exitPerimeter=0;" edge="1" parent="1" source="GosO7Gj60h1sTJ2ZnbMC-48" target="GosO7Gj60h1sTJ2ZnbMC-47">
          <mxGeometry relative="1" as="geometry" />
        </mxCell>
        <mxCell id="GosO7Gj60h1sTJ2ZnbMC-50" value="&lt;font color=&quot;#000000&quot;&gt;HTTPS&lt;/font&gt;" style="edgeLabel;html=1;align=center;verticalAlign=middle;resizable=0;points=[];fontColor=#B3B3B3;" vertex="1" connectable="0" parent="GosO7Gj60h1sTJ2ZnbMC-49">
          <mxGeometry x="-0.241" y="2" relative="1" as="geometry">
            <mxPoint x="27" y="34" as="offset" />
          </mxGeometry>
        </mxCell>
        <mxCell id="GosO7Gj60h1sTJ2ZnbMC-48" value="Remote Product" style="shape=cylinder3;whiteSpace=wrap;html=1;boundedLbl=1;backgroundOutline=1;size=15;strokeColor=#9673a6;strokeWidth=1;fillColor=#e1d5e7;" vertex="1" parent="1">
          <mxGeometry x="280" y="570" width="90" height="70" as="geometry" />
        </mxCell>
      </root>
    </mxGraphModel>
  </diagram>
</mxfile>
